<mxfile host="app.diagrams.net" modified="2024-03-30T04:58:56.262Z" agent="Mozilla/5.0 (Macintosh; Intel Mac OS X 10_15_7) AppleWebKit/537.36 (KHTML, like Gecko) Chrome/123.0.0.0 Safari/537.36" etag="FUK66FOjLUluBhLh3eih" version="24.2.1" type="github">
  <diagram name="Page-1" id="1yRaigYc3yj3IqJBVuUs">
    <mxGraphModel dx="802" dy="652" grid="0" gridSize="10" guides="1" tooltips="1" connect="1" arrows="1" fold="1" page="1" pageScale="1" pageWidth="827" pageHeight="1169" background="#b47dca" math="0" shadow="1">
      <root>
        <mxCell id="0" />
        <mxCell id="1" parent="0" />
        <mxCell id="qFE32XwYqVBQK91fRqmA-3" value="" style="edgeStyle=orthogonalEdgeStyle;rounded=0;orthogonalLoop=1;jettySize=auto;html=1;" parent="1" source="qFE32XwYqVBQK91fRqmA-1" target="qFE32XwYqVBQK91fRqmA-2" edge="1">
          <mxGeometry relative="1" as="geometry">
            <Array as="points">
              <mxPoint x="405" y="200" />
              <mxPoint x="205" y="200" />
            </Array>
          </mxGeometry>
        </mxCell>
        <mxCell id="qFE32XwYqVBQK91fRqmA-5" value="" style="edgeStyle=orthogonalEdgeStyle;rounded=0;orthogonalLoop=1;jettySize=auto;html=1;" parent="1" source="qFE32XwYqVBQK91fRqmA-1" target="qFE32XwYqVBQK91fRqmA-4" edge="1">
          <mxGeometry relative="1" as="geometry">
            <Array as="points">
              <mxPoint x="405" y="200" />
              <mxPoint x="330" y="200" />
            </Array>
          </mxGeometry>
        </mxCell>
        <mxCell id="qFE32XwYqVBQK91fRqmA-10" value="" style="edgeStyle=orthogonalEdgeStyle;rounded=0;orthogonalLoop=1;jettySize=auto;html=1;" parent="1" edge="1">
          <mxGeometry relative="1" as="geometry">
            <mxPoint x="595" y="250" as="targetPoint" />
            <Array as="points">
              <mxPoint x="405" y="200" />
              <mxPoint x="595" y="200" />
            </Array>
            <mxPoint x="480" y="200" as="sourcePoint" />
          </mxGeometry>
        </mxCell>
        <mxCell id="qFE32XwYqVBQK91fRqmA-1" value="&lt;h3&gt;&lt;br&gt;&lt;/h3&gt;" style="rounded=1;whiteSpace=wrap;html=1;" parent="1" vertex="1">
          <mxGeometry x="336.75" y="44" width="136.5" height="75" as="geometry" />
        </mxCell>
        <mxCell id="qFE32XwYqVBQK91fRqmA-2" value="" style="whiteSpace=wrap;html=1;rounded=1;" parent="1" vertex="1">
          <mxGeometry x="145" y="250" width="110" height="88" as="geometry" />
        </mxCell>
        <mxCell id="zVClSLXwrI54ClEM0Tne-18" value="" style="edgeStyle=orthogonalEdgeStyle;rounded=0;orthogonalLoop=1;jettySize=auto;html=1;" parent="1" source="qFE32XwYqVBQK91fRqmA-4" target="zVClSLXwrI54ClEM0Tne-13" edge="1">
          <mxGeometry relative="1" as="geometry">
            <Array as="points">
              <mxPoint x="285" y="394" />
            </Array>
          </mxGeometry>
        </mxCell>
        <mxCell id="zVClSLXwrI54ClEM0Tne-20" value="" style="edgeStyle=orthogonalEdgeStyle;rounded=0;orthogonalLoop=1;jettySize=auto;html=1;entryX=0;entryY=0.5;entryDx=0;entryDy=0;" parent="1" source="qFE32XwYqVBQK91fRqmA-4" target="zVClSLXwrI54ClEM0Tne-8" edge="1">
          <mxGeometry relative="1" as="geometry">
            <mxPoint x="225" y="380" as="targetPoint" />
            <Array as="points">
              <mxPoint x="285" y="444" />
            </Array>
          </mxGeometry>
        </mxCell>
        <mxCell id="zVClSLXwrI54ClEM0Tne-22" value="" style="edgeStyle=orthogonalEdgeStyle;rounded=0;orthogonalLoop=1;jettySize=auto;html=1;entryX=0;entryY=0.5;entryDx=0;entryDy=0;" parent="1" source="qFE32XwYqVBQK91fRqmA-4" target="zVClSLXwrI54ClEM0Tne-15" edge="1">
          <mxGeometry relative="1" as="geometry">
            <Array as="points">
              <mxPoint x="285" y="494" />
            </Array>
          </mxGeometry>
        </mxCell>
        <mxCell id="zVClSLXwrI54ClEM0Tne-24" value="" style="edgeStyle=orthogonalEdgeStyle;rounded=0;orthogonalLoop=1;jettySize=auto;html=1;entryX=0;entryY=0.5;entryDx=0;entryDy=0;" parent="1" source="qFE32XwYqVBQK91fRqmA-4" target="zVClSLXwrI54ClEM0Tne-17" edge="1">
          <mxGeometry relative="1" as="geometry">
            <Array as="points">
              <mxPoint x="285" y="544" />
            </Array>
          </mxGeometry>
        </mxCell>
        <mxCell id="qFE32XwYqVBQK91fRqmA-4" value="" style="whiteSpace=wrap;html=1;rounded=1;" parent="1" vertex="1">
          <mxGeometry x="275" y="250" width="118" height="102" as="geometry" />
        </mxCell>
        <mxCell id="qFE32XwYqVBQK91fRqmA-9" value="" style="whiteSpace=wrap;html=1;rounded=1;" parent="1" vertex="1">
          <mxGeometry x="555" y="250" width="110" height="88" as="geometry" />
        </mxCell>
        <mxCell id="qFE32XwYqVBQK91fRqmA-16" value="" style="edgeStyle=orthogonalEdgeStyle;rounded=0;orthogonalLoop=1;jettySize=auto;html=1;" parent="1" source="qFE32XwYqVBQK91fRqmA-1" edge="1">
          <mxGeometry relative="1" as="geometry">
            <mxPoint x="405" y="150" as="sourcePoint" />
            <mxPoint x="405" y="180" as="targetPoint" />
          </mxGeometry>
        </mxCell>
        <mxCell id="qFE32XwYqVBQK91fRqmA-17" value="" style="edgeStyle=orthogonalEdgeStyle;rounded=0;orthogonalLoop=1;jettySize=auto;html=1;" parent="1" source="qFE32XwYqVBQK91fRqmA-1" edge="1">
          <mxGeometry relative="1" as="geometry">
            <mxPoint x="405" y="150" as="sourcePoint" />
            <mxPoint x="405" y="180" as="targetPoint" />
          </mxGeometry>
        </mxCell>
        <mxCell id="qFE32XwYqVBQK91fRqmA-18" value="" style="edgeStyle=orthogonalEdgeStyle;rounded=0;orthogonalLoop=1;jettySize=auto;html=1;" parent="1" source="qFE32XwYqVBQK91fRqmA-1" edge="1">
          <mxGeometry relative="1" as="geometry">
            <mxPoint x="405" y="150" as="sourcePoint" />
            <mxPoint x="405" y="180" as="targetPoint" />
            <Array as="points" />
          </mxGeometry>
        </mxCell>
        <mxCell id="zVClSLXwrI54ClEM0Tne-3" value="" style="edgeStyle=orthogonalEdgeStyle;rounded=0;orthogonalLoop=1;jettySize=auto;html=1;" parent="1" source="qFE32XwYqVBQK91fRqmA-1" target="zVClSLXwrI54ClEM0Tne-2" edge="1">
          <mxGeometry relative="1" as="geometry">
            <mxPoint x="465" y="250" as="targetPoint" />
            <Array as="points" />
            <mxPoint x="405" y="150" as="sourcePoint" />
          </mxGeometry>
        </mxCell>
        <mxCell id="zVClSLXwrI54ClEM0Tne-7" value="" style="edgeStyle=orthogonalEdgeStyle;rounded=0;orthogonalLoop=1;jettySize=auto;html=1;" parent="1" source="zVClSLXwrI54ClEM0Tne-2" target="zVClSLXwrI54ClEM0Tne-5" edge="1">
          <mxGeometry relative="1" as="geometry">
            <Array as="points">
              <mxPoint x="475" y="200" />
            </Array>
          </mxGeometry>
        </mxCell>
        <mxCell id="zVClSLXwrI54ClEM0Tne-2" value="" style="rounded=1;whiteSpace=wrap;html=1;" parent="1" vertex="1">
          <mxGeometry x="355.5" y="149" width="99" height="87" as="geometry" />
        </mxCell>
        <mxCell id="zVClSLXwrI54ClEM0Tne-32" value="" style="edgeStyle=orthogonalEdgeStyle;rounded=0;orthogonalLoop=1;jettySize=auto;html=1;entryX=0;entryY=0.5;entryDx=0;entryDy=0;" parent="1" source="zVClSLXwrI54ClEM0Tne-5" target="zVClSLXwrI54ClEM0Tne-29" edge="1">
          <mxGeometry relative="1" as="geometry">
            <Array as="points">
              <mxPoint x="435" y="544" />
            </Array>
          </mxGeometry>
        </mxCell>
        <mxCell id="zVClSLXwrI54ClEM0Tne-34" value="" style="edgeStyle=orthogonalEdgeStyle;rounded=0;orthogonalLoop=1;jettySize=auto;html=1;entryX=0;entryY=0.5;entryDx=0;entryDy=0;" parent="1" source="zVClSLXwrI54ClEM0Tne-5" target="zVClSLXwrI54ClEM0Tne-28" edge="1">
          <mxGeometry relative="1" as="geometry">
            <Array as="points">
              <mxPoint x="435" y="494" />
            </Array>
          </mxGeometry>
        </mxCell>
        <mxCell id="zVClSLXwrI54ClEM0Tne-35" value="" style="edgeStyle=orthogonalEdgeStyle;rounded=0;orthogonalLoop=1;jettySize=auto;html=1;entryX=0;entryY=0.5;entryDx=0;entryDy=0;" parent="1" source="zVClSLXwrI54ClEM0Tne-5" target="zVClSLXwrI54ClEM0Tne-26" edge="1">
          <mxGeometry relative="1" as="geometry">
            <mxPoint x="445" y="490" as="targetPoint" />
            <Array as="points">
              <mxPoint x="435" y="444" />
            </Array>
          </mxGeometry>
        </mxCell>
        <mxCell id="zVClSLXwrI54ClEM0Tne-5" value="" style="whiteSpace=wrap;html=1;rounded=1;" parent="1" vertex="1">
          <mxGeometry x="425" y="250" width="110" height="103" as="geometry" />
        </mxCell>
        <mxCell id="zVClSLXwrI54ClEM0Tne-8" value="&lt;b&gt;Project 2&lt;/b&gt;" style="whiteSpace=wrap;html=1;rounded=1;" parent="1" vertex="1">
          <mxGeometry x="303" y="424" width="80" height="40" as="geometry" />
        </mxCell>
        <mxCell id="zVClSLXwrI54ClEM0Tne-13" value="" style="whiteSpace=wrap;html=1;rounded=1;" parent="1" vertex="1">
          <mxGeometry x="303" y="374" width="80" height="40" as="geometry" />
        </mxCell>
        <mxCell id="zVClSLXwrI54ClEM0Tne-15" value="&lt;b&gt;Project 3&lt;/b&gt;" style="whiteSpace=wrap;html=1;rounded=1;" parent="1" vertex="1">
          <mxGeometry x="303" y="474" width="80" height="40" as="geometry" />
        </mxCell>
        <mxCell id="zVClSLXwrI54ClEM0Tne-17" value="&lt;b&gt;Project 4&lt;/b&gt;" style="whiteSpace=wrap;html=1;rounded=1;" parent="1" vertex="1">
          <mxGeometry x="303" y="524" width="80" height="40" as="geometry" />
        </mxCell>
        <mxCell id="zVClSLXwrI54ClEM0Tne-26" value="&lt;b&gt;Blog 2&lt;/b&gt;" style="whiteSpace=wrap;html=1;rounded=1;" parent="1" vertex="1">
          <mxGeometry x="453" y="424" width="80" height="40" as="geometry" />
        </mxCell>
        <mxCell id="zVClSLXwrI54ClEM0Tne-27" value="&lt;b&gt;Blog 1&lt;/b&gt;" style="whiteSpace=wrap;html=1;rounded=1;" parent="1" vertex="1">
          <mxGeometry x="453" y="374" width="80" height="40" as="geometry" />
        </mxCell>
        <mxCell id="zVClSLXwrI54ClEM0Tne-28" value="&lt;b&gt;Blog 3&lt;/b&gt;" style="whiteSpace=wrap;html=1;rounded=1;" parent="1" vertex="1">
          <mxGeometry x="453" y="474" width="80" height="40" as="geometry" />
        </mxCell>
        <mxCell id="zVClSLXwrI54ClEM0Tne-29" value="&lt;b&gt;Blog 4&amp;nbsp;&lt;/b&gt;" style="whiteSpace=wrap;html=1;rounded=1;" parent="1" vertex="1">
          <mxGeometry x="453" y="524" width="80" height="40" as="geometry" />
        </mxCell>
        <mxCell id="zVClSLXwrI54ClEM0Tne-37" value="Homepage for the site" style="text;strokeColor=none;align=center;fillColor=none;html=1;verticalAlign=middle;whiteSpace=wrap;rounded=0;" parent="1" vertex="1">
          <mxGeometry x="343.13" y="79" width="121.5" height="30" as="geometry" />
        </mxCell>
        <mxCell id="zVClSLXwrI54ClEM0Tne-39" value="&lt;font style=&quot;font-size: 15px;&quot;&gt;Nav Bar Menu&lt;/font&gt;" style="text;strokeColor=none;align=center;fillColor=none;html=1;verticalAlign=middle;whiteSpace=wrap;rounded=0;" parent="1" vertex="1">
          <mxGeometry x="361.94" y="158" width="86.12" height="30" as="geometry" />
        </mxCell>
        <mxCell id="zVClSLXwrI54ClEM0Tne-44" value="&lt;b&gt;&lt;font style=&quot;font-size: 15px;&quot;&gt;Home Page&lt;/font&gt;&lt;/b&gt;" style="text;strokeColor=none;align=center;fillColor=none;html=1;verticalAlign=middle;whiteSpace=wrap;rounded=0;" parent="1" vertex="1">
          <mxGeometry x="336.75" y="44" width="134.25" height="30" as="geometry" />
        </mxCell>
        <mxCell id="zVClSLXwrI54ClEM0Tne-45" value="Links to other pages" style="text;strokeColor=none;align=center;fillColor=none;html=1;verticalAlign=middle;whiteSpace=wrap;rounded=0;" parent="1" vertex="1">
          <mxGeometry x="355.5" y="200" width="98.5" height="34" as="geometry" />
        </mxCell>
        <mxCell id="zVClSLXwrI54ClEM0Tne-47" value="&lt;b&gt;&lt;font style=&quot;font-size: 15px;&quot;&gt;About Me&lt;/font&gt;&lt;/b&gt;" style="text;strokeColor=none;align=center;fillColor=none;html=1;verticalAlign=middle;whiteSpace=wrap;rounded=0;" parent="1" vertex="1">
          <mxGeometry x="146" y="250" width="108" height="30" as="geometry" />
        </mxCell>
        <mxCell id="zVClSLXwrI54ClEM0Tne-49" value="Has info about me &amp;amp; links with more info about me" style="text;strokeColor=none;align=center;fillColor=none;html=1;verticalAlign=middle;whiteSpace=wrap;rounded=0;" parent="1" vertex="1">
          <mxGeometry x="145" y="290" width="110" height="34" as="geometry" />
        </mxCell>
        <mxCell id="zVClSLXwrI54ClEM0Tne-51" value="" style="edgeStyle=orthogonalEdgeStyle;rounded=0;orthogonalLoop=1;jettySize=auto;html=1;" parent="1" edge="1">
          <mxGeometry relative="1" as="geometry">
            <mxPoint x="435" y="356" as="sourcePoint" />
            <mxPoint x="453" y="396" as="targetPoint" />
            <Array as="points">
              <mxPoint x="435" y="396" />
            </Array>
          </mxGeometry>
        </mxCell>
        <mxCell id="zVClSLXwrI54ClEM0Tne-52" value="&lt;span style=&quot;font-size: 15px;&quot;&gt;&lt;b&gt;Projects&lt;/b&gt;&lt;/span&gt;" style="text;strokeColor=none;align=center;fillColor=none;html=1;verticalAlign=middle;whiteSpace=wrap;rounded=0;" parent="1" vertex="1">
          <mxGeometry x="278" y="252" width="111" height="30" as="geometry" />
        </mxCell>
        <mxCell id="zVClSLXwrI54ClEM0Tne-53" value="&lt;b&gt;&lt;font style=&quot;font-size: 15px;&quot;&gt;Blog&lt;/font&gt;&lt;/b&gt;" style="text;strokeColor=none;align=center;fillColor=none;html=1;verticalAlign=middle;whiteSpace=wrap;rounded=0;" parent="1" vertex="1">
          <mxGeometry x="425" y="250" width="111" height="30" as="geometry" />
        </mxCell>
        <mxCell id="zVClSLXwrI54ClEM0Tne-54" value="&lt;b&gt;&lt;font style=&quot;font-size: 15px;&quot;&gt;Contact&lt;/font&gt;&lt;/b&gt;" style="text;strokeColor=none;align=center;fillColor=none;html=1;verticalAlign=middle;whiteSpace=wrap;rounded=0;" parent="1" vertex="1">
          <mxGeometry x="555" y="252" width="111" height="30" as="geometry" />
        </mxCell>
        <mxCell id="zVClSLXwrI54ClEM0Tne-55" value="Links to contact me including GitHub &amp;amp; others" style="text;strokeColor=none;align=center;fillColor=none;html=1;verticalAlign=middle;whiteSpace=wrap;rounded=0;" parent="1" vertex="1">
          <mxGeometry x="558" y="290" width="104" height="34" as="geometry" />
        </mxCell>
        <mxCell id="zVClSLXwrI54ClEM0Tne-56" value="Overview of blogs which links to blog posts where I write about topics I&#39;m into" style="text;strokeColor=none;align=center;fillColor=none;html=1;verticalAlign=middle;whiteSpace=wrap;rounded=0;" parent="1" vertex="1">
          <mxGeometry x="429" y="294" width="104" height="34" as="geometry" />
        </mxCell>
        <mxCell id="zVClSLXwrI54ClEM0Tne-57" value="Overview of projects pages which links to projects I&#39;ve done, where I talk about them" style="text;strokeColor=none;align=center;fillColor=none;html=1;verticalAlign=middle;whiteSpace=wrap;rounded=0;" parent="1" vertex="1">
          <mxGeometry x="278" y="296" width="112" height="34" as="geometry" />
        </mxCell>
        <mxCell id="zVClSLXwrI54ClEM0Tne-58" value="&lt;b&gt;Project 1&lt;/b&gt;" style="text;strokeColor=none;align=center;fillColor=none;html=1;verticalAlign=middle;whiteSpace=wrap;rounded=0;" parent="1" vertex="1">
          <mxGeometry x="313" y="379" width="60" height="30" as="geometry" />
        </mxCell>
        <mxCell id="JP2hXoU_zF4o3-1WAwiD-1" value="" style="shape=curlyBracket;whiteSpace=wrap;html=1;rounded=1;flipH=1;labelPosition=right;verticalLabelPosition=middle;align=left;verticalAlign=middle;size=0.5;" vertex="1" parent="1">
          <mxGeometry x="558" y="394" width="35" height="154" as="geometry" />
        </mxCell>
        <mxCell id="JP2hXoU_zF4o3-1WAwiD-3" value="" style="ellipse;shape=cloud;whiteSpace=wrap;html=1;fillColor=#000000;" vertex="1" parent="1">
          <mxGeometry x="609" y="403" width="150" height="136" as="geometry" />
        </mxCell>
        <mxCell id="JP2hXoU_zF4o3-1WAwiD-4" value="Individual blog pages" style="text;strokeColor=none;align=center;fillColor=none;html=1;verticalAlign=middle;whiteSpace=wrap;rounded=0;fontColor=#FFFFFF;" vertex="1" parent="1">
          <mxGeometry x="641" y="447" width="92" height="58" as="geometry" />
        </mxCell>
        <mxCell id="JP2hXoU_zF4o3-1WAwiD-5" value="" style="shape=curlyBracket;whiteSpace=wrap;html=1;rounded=1;flipH=1;labelPosition=right;verticalLabelPosition=middle;align=left;verticalAlign=middle;size=0.5;rotation=-180;" vertex="1" parent="1">
          <mxGeometry x="216" y="394" width="35" height="154" as="geometry" />
        </mxCell>
        <mxCell id="JP2hXoU_zF4o3-1WAwiD-6" value="" style="ellipse;shape=cloud;whiteSpace=wrap;html=1;fillColor=#000000;" vertex="1" parent="1">
          <mxGeometry x="56" y="403" width="150" height="136" as="geometry" />
        </mxCell>
        <mxCell id="JP2hXoU_zF4o3-1WAwiD-7" value="Individual project pages" style="text;strokeColor=none;align=center;fillColor=none;html=1;verticalAlign=middle;whiteSpace=wrap;rounded=0;fontColor=#FFFFFF;" vertex="1" parent="1">
          <mxGeometry x="88" y="447" width="92" height="58" as="geometry" />
        </mxCell>
        <mxCell id="JP2hXoU_zF4o3-1WAwiD-13" value="" style="curved=1;endArrow=classic;html=1;rounded=0;fontColor=#FFCCFF;strokeColor=#FFFFFF;" edge="1" parent="1">
          <mxGeometry width="50" height="50" relative="1" as="geometry">
            <mxPoint x="532.63" y="146" as="sourcePoint" />
            <mxPoint x="464.63" y="175" as="targetPoint" />
            <Array as="points">
              <mxPoint x="530.63" y="146" />
              <mxPoint x="523.63" y="156" />
              <mxPoint x="512.63" y="162" />
              <mxPoint x="494.63" y="173" />
            </Array>
          </mxGeometry>
        </mxCell>
        <mxCell id="JP2hXoU_zF4o3-1WAwiD-9" value="" style="ellipse;shape=cloud;whiteSpace=wrap;html=1;fillColor=#000000;" vertex="1" parent="1">
          <mxGeometry x="496" y="51" width="145" height="124" as="geometry" />
        </mxCell>
        <mxCell id="JP2hXoU_zF4o3-1WAwiD-10" value="Available in two styles; desktop or mobile version" style="text;strokeColor=none;align=center;fillColor=none;html=1;verticalAlign=middle;whiteSpace=wrap;rounded=0;fontColor=#FFFFFF;" vertex="1" parent="1">
          <mxGeometry x="522" y="91" width="97" height="58" as="geometry" />
        </mxCell>
      </root>
    </mxGraphModel>
  </diagram>
</mxfile>
